  0
SECTION
  2
HEADER
  9
$ACADVER
  1
AC1009
  9
$EXTMIN
 10
0.0
 20
0.0
 30
0.0
  9
$EXTMAX
 10
1000.0
 20
1000.0
 30
0.0
  9
$FILLMODE
 70
 0
  9
$SPLFRAME
 70
 1
  0
ENDSEC
  0
SECTION
  2
TABLES
  0
TABLE
  2
LAYER
 70
1
  0
LAYER
  2
0
 70
     0
 62
     7
  6
CONTINUOUS
  0
ENDTAB
  0
ENDSEC
  0
SECTION
  2
ENTITIES
  0
POLYLINE
  8
0
 62
     94
 66
     1
 10
0
 20
0
 30
0.0
 40
0.141732
 41
0.141732
  0
VERTEX
  8
0
 10
0.511828
 20
0.180176
 30
0.0
 40
0.0019685
 41
0.0019685
  0
VERTEX
  8
0
 10
0.511828
 20
0.888835
 30
0.0
 40
0.0019685
 41
0.0019685
  0
SEQEND
 8
0
  0
POLYLINE
  8
0
 62
     94
 66
     1
 10
0
 20
0
 30
0.0
 40
0.141732
 41
0.141732
  0
VERTEX
  8
0
 10
0.90549
 20
0.180176
 30
0.0
 40
0.0019685
 41
0.0019685
  0
VERTEX
  8
0
 10
0.90549
 20
0.888835
 30
0.0
 40
0.0019685
 41
0.0019685
  0
SEQEND
 8
0
  0
POLYLINE
  8
0
 62
     94
 66
     1
 10
0
 20
0
 30
0.0
 40
0.141732
 41
0.141732
  0
VERTEX
  8
0
 10
1.29921
 20
0.180176
 30
0.0
 40
0.0019685
 41
0.0019685
  0
VERTEX
  8
0
 10
1.29921
 20
0.888835
 30
0.0
 40
0.0019685
 41
0.0019685
  0
SEQEND
 8
0
  0
POLYLINE
  8
0
 62
     94
 66
     1
 10
0
 20
0
 30
0.0
 40
0.141732
 41
0.141732
  0
VERTEX
  8
0
 10
1.69293
 20
0.180176
 30
0.0
 40
0.0019685
 41
0.0019685
  0
VERTEX
  8
0
 10
1.69293
 20
0.888835
 30
0.0
 40
0.0019685
 41
0.0019685
  0
SEQEND
 8
0
  0
POLYLINE
  8
0
 62
     94
 66
     1
 10
0
 20
0
 30
0.0
 40
0.141732
 41
0.141732
  0
VERTEX
  8
0
 10
2.08658
 20
0.180176
 30
0.0
 40
0.0019685
 41
0.0019685
  0
VERTEX
  8
0
 10
2.08658
 20
0.888835
 30
0.0
 40
0.0019685
 41
0.0019685
  0
SEQEND
 8
0
  0
POLYLINE
  8
0
 62
     94
 66
     1
 10
0
 20
0
 30
0.0
 40
0.141732
 41
0.141732
  0
VERTEX
  8
0
 10
2.48031
 20
0.180176
 30
0.0
 40
0.0019685
 41
0.0019685
  0
VERTEX
  8
0
 10
2.48031
 20
0.888835
 30
0.0
 40
0.0019685
 41
0.0019685
  0
SEQEND
 8
0
  0
POLYLINE
  8
0
 62
     94
 66
     1
 10
0
 20
0
 30
0.0
 40
0.141732
 41
0.141732
  0
VERTEX
  8
0
 10
2.87403
 20
0.180176
 30
0.0
 40
0.0019685
 41
0.0019685
  0
VERTEX
  8
0
 10
2.87403
 20
0.888835
 30
0.0
 40
0.0019685
 41
0.0019685
  0
SEQEND
 8
0
  0
POLYLINE
  8
0
 62
     94
 66
     1
 10
0
 20
0
 30
0.0
 40
0.141732
 41
0.141732
  0
VERTEX
  8
0
 10
3.26774
 20
0.180176
 30
0.0
 40
0.0019685
 41
0.0019685
  0
VERTEX
  8
0
 10
3.26774
 20
0.888835
 30
0.0
 40
0.0019685
 41
0.0019685
  0
SEQEND
 8
0
  0
POLYLINE
  8
0
 62
     94
 66
     1
 10
0
 20
0
 30
0.0
 40
0.141732
 41
0.141732
  0
VERTEX
  8
0
 10
3.6614
 20
0.180176
 30
0.0
 40
0.0019685
 41
0.0019685
  0
VERTEX
  8
0
 10
3.6614
 20
0.888835
 30
0.0
 40
0.0019685
 41
0.0019685
  0
SEQEND
 8
0
  0
POLYLINE
  8
0
 62
     94
 66
     1
 10
0
 20
0
 30
0.0
 40
0.141732
 41
0.141732
  0
VERTEX
  8
0
 10
4.05512
 20
0.180176
 30
0.0
 40
0.0019685
 41
0.0019685
  0
VERTEX
  8
0
 10
4.05512
 20
0.888835
 30
0.0
 40
0.0019685
 41
0.0019685
  0
SEQEND
 8
0
  0
POLYLINE
  8
0
 62
     1
 66
     1
 10
0
 20
0
 30
0.0
 40
0.283465
 41
0.283465
  0
VERTEX
  8
0
 10
4.05512
 20
0.539606
 30
0.0
 40
0.00393701
 41
0.00393701
  0
VERTEX
  8
0
 10
4.05274
 20
0.539606
 30
0.0
 40
0.00393701
 41
0.00393701
  0
VERTEX
  8
0
 10
4.04606
 20
0.540799
 30
0.0
 40
0.00393701
 41
0.00393701
  0
VERTEX
  8
0
 10
4.03467
 20
0.542372
 30
0.0
 40
0.00393701
 41
0.00393701
  0
VERTEX
  8
0
 10
4.0185
 20
0.544706
 30
0.0
 40
0.00393701
 41
0.00393701
  0
VERTEX
  8
0
 10
3.99804
 20
0.547472
 30
0.0
 40
0.00393701
 41
0.00393701
  0
VERTEX
  8
0
 10
3.97282
 20
0.551053
 30
0.0
 40
0.00393701
 41
0.00393701
  0
VERTEX
  8
0
 10
3.94368
 20
0.554958
 30
0.0
 40
0.00393701
 41
0.00393701
  0
VERTEX
  8
0
 10
3.90983
 20
0.559299
 30
0.0
 40
0.00393701
 41
0.00393701
  0
VERTEX
  8
0
 10
3.87164
 20
0.564399
 30
0.0
 40
0.00393701
 41
0.00393701
  0
VERTEX
  8
0
 10
3.82954
 20
0.569933
 30
0.0
 40
0.00393701
 41
0.00393701
  0
VERTEX
  8
0
 10
3.78347
 20
0.575846
 30
0.0
 40
0.00393701
 41
0.00393701
  0
VERTEX
  8
0
 10
3.73307
 20
0.582519
 30
0.0
 40
0.00393701
 41
0.00393701
  0
VERTEX
  8
0
 10
3.67914
 20
0.589193
 30
0.0
 40
0.00393701
 41
0.00393701
  0
VERTEX
  8
0
 10
3.62125
 20
0.5963
 30
0.0
 40
0.00393701
 41
0.00393701
  0
VERTEX
  8
0
 10
3.56022
 20
0.603787
 30
0.0
 40
0.00393701
 41
0.00393701
  0
VERTEX
  8
0
 10
3.49528
 20
0.611654
 30
0.0
 40
0.00393701
 41
0.00393701
  0
VERTEX
  8
0
 10
3.42719
 20
0.619521
 30
0.0
 40
0.00393701
 41
0.00393701
  0
VERTEX
  8
0
 10
3.3559
 20
0.627821
 30
0.0
 40
0.00393701
 41
0.00393701
  0
VERTEX
  8
0
 10
3.2819
 20
0.636068
 30
0.0
 40
0.00393701
 41
0.00393701
  0
VERTEX
  8
0
 10
3.20469
 20
0.644749
 30
0.0
 40
0.00393701
 41
0.00393701
  0
VERTEX
  8
0
 10
3.12522
 20
0.653375
 30
0.0
 40
0.00393701
 41
0.00393701
  0
VERTEX
  8
0
 10
3.04329
 20
0.661675
 30
0.0
 40
0.00393701
 41
0.00393701
  0
VERTEX
  8
0
 10
2.95904
 20
0.670301
 30
0.0
 40
0.00393701
 41
0.00393701
  0
VERTEX
  8
0
 10
2.87283
 20
0.678982
 30
0.0
 40
0.00393701
 41
0.00393701
  0
VERTEX
  8
0
 10
2.78467
 20
0.687229
 30
0.0
 40
0.00393701
 41
0.00393701
  0
VERTEX
  8
0
 10
2.69488
 20
0.695529
 30
0.0
 40
0.00393701
 41
0.00393701
  0
VERTEX
  8
0
 10
2.60394
 20
0.703776
 30
0.0
 40
0.00393701
 41
0.00393701
  0
VERTEX
  8
0
 10
2.51139
 20
0.711643
 30
0.0
 40
0.00393701
 41
0.00393701
  0
VERTEX
  8
0
 10
2.41812
 20
0.719129
 30
0.0
 40
0.00393701
 41
0.00393701
  0
VERTEX
  8
0
 10
2.324
 20
0.726617
 30
0.0
 40
0.00393701
 41
0.00393701
  0
VERTEX
  8
0
 10
2.22911
 20
0.73329
 30
0.0
 40
0.00393701
 41
0.00393701
  0
VERTEX
  8
0
 10
2.13428
 20
0.740018
 30
0.0
 40
0.00393701
 41
0.00393701
  0
VERTEX
  8
0
 10
2.03896
 20
0.745931
 30
0.0
 40
0.00393701
 41
0.00393701
  0
VERTEX
  8
0
 10
1.94413
 20
0.751411
 30
0.0
 40
0.00393701
 41
0.00393701
  0
VERTEX
  8
0
 10
1.84924
 20
0.756131
 30
0.0
 40
0.00393701
 41
0.00393701
  0
VERTEX
  8
0
 10
1.7551
 20
0.760471
 30
0.0
 40
0.00393701
 41
0.00393701
  0
VERTEX
  8
0
 10
1.66183
 20
0.763997
 30
0.0
 40
0.00393701
 41
0.00393701
  0
VERTEX
  8
0
 10
1.56928
 20
0.766764
 30
0.0
 40
0.00393701
 41
0.00393701
  0
VERTEX
  8
0
 10
1.47835
 20
0.769151
 30
0.0
 40
0.00393701
 41
0.00393701
  0
VERTEX
  8
0
 10
1.38856
 20
0.77029
 30
0.0
 40
0.00393701
 41
0.00393701
  0
VERTEX
  8
0
 10
1.3004
 20
0.770725
 30
0.0
 40
0.00393701
 41
0.00393701
  0
VERTEX
  8
0
 10
1.21419
 20
0.77029
 30
0.0
 40
0.00393701
 41
0.00393701
  0
VERTEX
  8
0
 10
1.12994
 20
0.769151
 30
0.0
 40
0.00393701
 41
0.00393701
  0
VERTEX
  8
0
 10
1.04801
 20
0.766764
 30
0.0
 40
0.00393701
 41
0.00393701
  0
VERTEX
  8
0
 10
0.968479
 20
0.763618
 30
0.0
 40
0.00393701
 41
0.00393701
  0
VERTEX
  8
0
 10
0.891331
 20
0.759711
 30
0.0
 40
0.00393701
 41
0.00393701
  0
VERTEX
  8
0
 10
0.817329
 20
0.754557
 30
0.0
 40
0.00393701
 41
0.00393701
  0
VERTEX
  8
0
 10
0.746039
 20
0.748643
 30
0.0
 40
0.00393701
 41
0.00393701
  0
VERTEX
  8
0
 10
0.677951
 20
0.74159
 30
0.0
 40
0.00393701
 41
0.00393701
  0
VERTEX
  8
0
 10
0.61301
 20
0.734104
 30
0.0
 40
0.00393701
 41
0.00393701
  0
VERTEX
  8
0
 10
0.551975
 20
0.725424
 30
0.0
 40
0.00393701
 41
0.00393701
  0
VERTEX
  8
0
 10
0.494086
 20
0.715603
 30
0.0
 40
0.00393701
 41
0.00393701
  0
VERTEX
  8
0
 10
0.440158
 20
0.70535
 30
0.0
 40
0.00393701
 41
0.00393701
  0
VERTEX
  8
0
 10
0.389757
 20
0.694336
 30
0.0
 40
0.00393701
 41
0.00393701
  0
VERTEX
  8
0
 10
0.343696
 20
0.682508
 30
0.0
 40
0.00393701
 41
0.00393701
  0
VERTEX
  8
0
 10
0.301594
 20
0.670301
 30
0.0
 40
0.00393701
 41
0.00393701
  0
VERTEX
  8
0
 10
0.2634
 20
0.657335
 30
0.0
 40
0.00393701
 41
0.00393701
  0
VERTEX
  8
0
 10
0.229546
 20
0.643554
 30
0.0
 40
0.00393701
 41
0.00393701
  0
VERTEX
  8
0
 10
0.200413
 20
0.629394
 30
0.0
 40
0.00393701
 41
0.00393701
  0
VERTEX
  8
0
 10
0.175185
 20
0.614421
 30
0.0
 40
0.00393701
 41
0.00393701
  0
VERTEX
  8
0
 10
0.154731
 20
0.599447
 30
0.0
 40
0.00393701
 41
0.00393701
  0
VERTEX
  8
0
 10
0.138563
 20
0.583713
 30
0.0
 40
0.00393701
 41
0.00393701
  0
VERTEX
  8
0
 10
0.12717
 20
0.567546
 30
0.0
 40
0.00393701
 41
0.00393701
  0
VERTEX
  8
0
 10
0.120497
 20
0.551432
 30
0.0
 40
0.00393701
 41
0.00393701
  0
VERTEX
  8
0
 10
0.11811
 20
0.534506
 30
0.0
 40
0.00393701
 41
0.00393701
  0
VERTEX
  8
0
 10
0.120497
 20
0.517578
 30
0.0
 40
0.00393701
 41
0.00393701
  0
VERTEX
  8
0
 10
0.12717
 20
0.501411
 30
0.0
 40
0.00393701
 41
0.00393701
  0
VERTEX
  8
0
 10
0.138563
 20
0.485297
 30
0.0
 40
0.00393701
 41
0.00393701
  0
VERTEX
  8
0
 10
0.154731
 20
0.46951
 30
0.0
 40
0.00393701
 41
0.00393701
  0
VERTEX
  8
0
 10
0.175185
 20
0.45459
 30
0.0
 40
0.00393701
 41
0.00393701
  0
VERTEX
  8
0
 10
0.200413
 20
0.439615
 30
0.0
 40
0.00393701
 41
0.00393701
  0
VERTEX
  8
0
 10
0.229546
 20
0.425456
 30
0.0
 40
0.00393701
 41
0.00393701
  0
VERTEX
  8
0
 10
0.2634
 20
0.411675
 30
0.0
 40
0.00393701
 41
0.00393701
  0
VERTEX
  8
0
 10
0.301594
 20
0.398654
 30
0.0
 40
0.00393701
 41
0.00393701
  0
VERTEX
  8
0
 10
0.343696
 20
0.386447
 30
0.0
 40
0.00393701
 41
0.00393701
  0
VERTEX
  8
0
 10
0.389757
 20
0.374675
 30
0.0
 40
0.00393701
 41
0.00393701
  0
VERTEX
  8
0
 10
0.440158
 20
0.363607
 30
0.0
 40
0.00393701
 41
0.00393701
  0
VERTEX
  8
0
 10
0.494086
 20
0.353407
 30
0.0
 40
0.00393701
 41
0.00393701
  0
VERTEX
  8
0
 10
0.551975
 20
0.343533
 30
0.0
 40
0.00393701
 41
0.00393701
  0
VERTEX
  8
0
 10
0.61301
 20
0.334907
 30
0.0
 40
0.00393701
 41
0.00393701
  0
VERTEX
  8
0
 10
0.677951
 20
0.327419
 30
0.0
 40
0.00393701
 41
0.00393701
  0
VERTEX
  8
0
 10
0.746039
 20
0.320313
 30
0.0
 40
0.00393701
 41
0.00393701
  0
VERTEX
  8
0
 10
0.817329
 20
0.314399
 30
0.0
 40
0.00393701
 41
0.00393701
  0
VERTEX
  8
0
 10
0.891331
 20
0.309299
 30
0.0
 40
0.00393701
 41
0.00393701
  0
VERTEX
  8
0
 10
0.968479
 20
0.305339
 30
0.0
 40
0.00393701
 41
0.00393701
  0
VERTEX
  8
0
 10
1.04801
 20
0.302192
 30
0.0
 40
0.00393701
 41
0.00393701
  0
VERTEX
  8
0
 10
1.12994
 20
0.299858
 30
0.0
 40
0.00393701
 41
0.00393701
  0
VERTEX
  8
0
 10
1.21419
 20
0.298665
 30
0.0
 40
0.00393701
 41
0.00393701
  0
VERTEX
  8
0
 10
1.3004
 20
0.298286
 30
0.0
 40
0.00393701
 41
0.00393701
  0
VERTEX
  8
0
 10
1.38856
 20
0.298665
 30
0.0
 40
0.00393701
 41
0.00393701
  0
VERTEX
  8
0
 10
1.47835
 20
0.299858
 30
0.0
 40
0.00393701
 41
0.00393701
  0
VERTEX
  8
0
 10
1.56928
 20
0.302192
 30
0.0
 40
0.00393701
 41
0.00393701
  0
VERTEX
  8
0
 10
1.66183
 20
0.304958
 30
0.0
 40
0.00393701
 41
0.00393701
  0
VERTEX
  8
0
 10
1.7551
 20
0.308485
 30
0.0
 40
0.00393701
 41
0.00393701
  0
VERTEX
  8
0
 10
1.84924
 20
0.312825
 30
0.0
 40
0.00393701
 41
0.00393701
  0
VERTEX
  8
0
 10
1.94413
 20
0.317546
 30
0.0
 40
0.00393701
 41
0.00393701
  0
VERTEX
  8
0
 10
2.03896
 20
0.323079
 30
0.0
 40
0.00393701
 41
0.00393701
  0
VERTEX
  8
0
 10
2.13428
 20
0.328993
 30
0.0
 40
0.00393701
 41
0.00393701
  0
VERTEX
  8
0
 10
2.22911
 20
0.335667
 30
0.0
 40
0.00393701
 41
0.00393701
  0
VERTEX
  8
0
 10
2.324
 20
0.342339
 30
0.0
 40
0.00393701
 41
0.00393701
  0
VERTEX
  8
0
 10
2.41812
 20
0.349826
 30
0.0
 40
0.00393701
 41
0.00393701
  0
VERTEX
  8
0
 10
2.51139
 20
0.357314
 30
0.0
 40
0.00393701
 41
0.00393701
  0
VERTEX
  8
0
 10
2.60394
 20
0.365181
 30
0.0
 40
0.00393701
 41
0.00393701
  0
VERTEX
  8
0
 10
2.69488
 20
0.373481
 30
0.0
 40
0.00393701
 41
0.00393701
  0
VERTEX
  8
0
 10
2.78467
 20
0.381728
 30
0.0
 40
0.00393701
 41
0.00393701
  0
VERTEX
  8
0
 10
2.87283
 20
0.390028
 30
0.0
 40
0.00393701
 41
0.00393701
  0
VERTEX
  8
0
 10
2.95904
 20
0.398654
 30
0.0
 40
0.00393701
 41
0.00393701
  0
VERTEX
  8
0
 10
3.04329
 20
0.407335
 30
0.0
 40
0.00393701
 41
0.00393701
  0
VERTEX
  8
0
 10
3.12522
 20
0.415582
 30
0.0
 40
0.00393701
 41
0.00393701
  0
VERTEX
  8
0
 10
3.20469
 20
0.424263
 30
0.0
 40
0.00393701
 41
0.00393701
  0
VERTEX
  8
0
 10
3.2819
 20
0.432943
 30
0.0
 40
0.00393701
 41
0.00393701
  0
VERTEX
  8
0
 10
3.3559
 20
0.441189
 30
0.0
 40
0.00393701
 41
0.00393701
  0
VERTEX
  8
0
 10
3.42719
 20
0.449436
 30
0.0
 40
0.00393701
 41
0.00393701
  0
VERTEX
  8
0
 10
3.49528
 20
0.457303
 30
0.0
 40
0.00393701
 41
0.00393701
  0
VERTEX
  8
0
 10
3.56022
 20
0.465224
 30
0.0
 40
0.00393701
 41
0.00393701
  0
VERTEX
  8
0
 10
3.62125
 20
0.472657
 30
0.0
 40
0.00393701
 41
0.00393701
  0
VERTEX
  8
0
 10
3.67914
 20
0.479764
 30
0.0
 40
0.00393701
 41
0.00393701
  0
VERTEX
  8
0
 10
3.73307
 20
0.486436
 30
0.0
 40
0.00393701
 41
0.00393701
  0
VERTEX
  8
0
 10
3.78347
 20
0.493164
 30
0.0
 40
0.00393701
 41
0.00393701
  0
VERTEX
  8
0
 10
3.82954
 20
0.499078
 30
0.0
 40
0.00393701
 41
0.00393701
  0
VERTEX
  8
0
 10
3.87164
 20
0.504557
 30
0.0
 40
0.00393701
 41
0.00393701
  0
VERTEX
  8
0
 10
3.90983
 20
0.509711
 30
0.0
 40
0.00393701
 41
0.00393701
  0
VERTEX
  8
0
 10
3.94368
 20
0.513997
 30
0.0
 40
0.00393701
 41
0.00393701
  0
VERTEX
  8
0
 10
3.97282
 20
0.517958
 30
0.0
 40
0.00393701
 41
0.00393701
  0
VERTEX
  8
0
 10
3.99804
 20
0.521485
 30
0.0
 40
0.00393701
 41
0.00393701
  0
VERTEX
  8
0
 10
4.0185
 20
0.524251
 30
0.0
 40
0.00393701
 41
0.00393701
  0
VERTEX
  8
0
 10
4.03467
 20
0.526639
 30
0.0
 40
0.00393701
 41
0.00393701
  0
VERTEX
  8
0
 10
4.04606
 20
0.528212
 30
0.0
 40
0.00393701
 41
0.00393701
  0
VERTEX
  8
0
 10
4.05274
 20
0.529351
 30
0.0
 40
0.00393701
 41
0.00393701
  0
VERTEX
  8
0
 10
4.05512
 20
0.529351
 30
0.0
 40
0.00393701
 41
0.00393701
  0
SEQEND
 8
0
  0
POLYLINE
  8
0
 62
     5
 66
     1
 10
0
 20
0
 30
0.0
 40
0.283465
 41
0.283465
  0
VERTEX
  8
0
 10
0.11811
 20
0.534506
 30
0.0
 40
0.00393701
 41
0.00393701
  0
VERTEX
  8
0
 10
4.05512
 20
0.534506
 30
0.0
 40
0.00393701
 41
0.00393701
  0
SEQEND
 8
0
  0
POLYLINE
  8
0
 62
     0
 66
     1
 10
0
 20
0
 30
0.0
 40
0.283465
 41
0.283465
  0
VERTEX
  8
0
 10
0
 20
0.534506
 30
0.0
 40
0.00393701
 41
0.00393701
  0
VERTEX
  8
0
 10
4.17324
 20
0.534506
 30
0.0
 40
0.00393701
 41
0.00393701
  0
SEQEND
 8
0
  0
POLYLINE
  8
0
 62
     0
 66
     1
 10
0
 20
0
 30
0.0
 40
0.283465
 41
0.283465
  0
VERTEX
  8
0
 10
0.11811
 20
0.180176
 30
0.0
 40
0.00393701
 41
0.00393701
  0
VERTEX
  8
0
 10
0.11811
 20
0.888835
 30
0.0
 40
0.00393701
 41
0.00393701
  0
SEQEND
 8
0
  0
TEXT
  8
0
 62
     177
 10
0.0393701
 20
0.101352
 30
0
 40
0.0708661
  1
Name = NA
 50
0
  7
ArialMT
  0
TEXT
  8
0
 62
     177
 10
0.407583
 20
0.101352
 30
0
 40
0.0708661
  1
CA
 50
0
  7
ArialMT
  0
TEXT
  8
0
 62
     177
 10
0.502244
 20
0.101352
 30
0
 40
0.0708661
  1
 0012 
 50
0
  7
ArialMT
  0
TEXT
  8
0
 62
     177
 10
0.695249
 20
0.101352
 30
0
 40
0.0708661
  1
AIRFOILS
 50
0
  7
ArialMT
  0
TEXT
  8
0
 62
     177
 10
0.0393701
 20
0.0226117
 30
0
 40
0.0708661
  1
Chord
 50
0
  7
ArialMT
  0
TEXT
  8
0
 62
     177
 10
0.232454
 20
0.0226117
 30
0
 40
0.0708661
  1
 = 100mm Ra
 50
0
  7
ArialMT
  0
TEXT
  8
0
 62
     177
 10
0.659696
 20
0.0226117
 30
0
 40
0.0708661
  1
dius = 0mm
 50
0
  7
ArialMT
  0
TEXT
  8
0
 62
     177
 10
1.04634
 20
0.0226117
 30
0
 40
0.0708661
  1
Thickn
 50
0
  7
ArialMT
  0
TEXT
  8
0
 62
     177
 10
1.25516
 20
0.0226117
 30
0
 40
0.0708661
  1
ess = 100% Origin = 0% Pitch = 0°
 50
0
  7
ArialMT
  0
ENDSEC
  0
EOF
